<svg xmlns:xlink="http://www.w3.org/1999/xlink" width="72" height="73" viewBox="0 0 72 73" fill="none" xmlns="http://www.w3.org/2000/svg">
   <title>Heart icon</title>
   <path d="M52.825 43.1283L35.9874 60.1746L19.1458 43.1283L13.4987 37.4252C11.2637 35.167 10.0066 32.1026 10.0039 28.9062C10.0012 25.7098 11.2531 22.6432 13.4843 20.3811C15.7154 18.1189 18.743 16.8465 21.9011 16.8438C25.0591 16.841 28.0889 18.1081 30.3239 20.3664L35.975 26.0862L52.825 43.1283Z" fill="#FA7D29"></path>
   <path d="M58.5085 37.4224L52.8575 43.1356L36.0207 60.1746L19.1797 43.123L36.0207 26.0882L41.6675 20.3708C42.7741 19.252 44.0877 18.3647 45.5332 17.7595C46.9788 17.1543 48.5279 16.8432 50.0924 16.8438C51.6568 16.8443 53.2057 17.1567 54.6508 17.7629C56.0959 18.3692 57.4089 19.2575 58.5147 20.3771C59.6205 21.4967 60.4975 22.8257 61.0956 24.2883C61.6937 25.7508 62.0013 27.3182 62.0007 28.901C62.0002 30.4838 61.6914 32.051 61.0922 33.5131C60.493 34.9752 59.6151 36.3036 58.5085 37.4224Z" fill="#FA7D29"></path>
   </svg>