<svg width="1440" height="600" viewBox="0 0 1440 600" fill="none" xmlns="http://www.w3.org/2000/svg">
<g clip-path="url(#clip0)">
<rect width="1440" height="600" fill="#B3E1E6"/>
<circle cx="179" cy="182" r="94" fill="#FCFCD1"/>
<path d="M585 599.512H1678V588.018C1678 555.963 1655.13 528.472 1623.61 522.645C1593.22 517.026 1570.71 491.21 1569.28 460.341L1568.47 442.825C1566.01 389.659 1517.56 350.651 1465.09 359.604L1459.47 360.564C1428.75 365.807 1397.44 355.419 1375.94 332.856L1368.59 325.138C1327.06 281.552 1258.21 279.442 1214.1 320.404L1173.43 358.166C1159.91 370.722 1139.65 372.677 1123.98 362.939C1105.69 351.576 1081.72 356.33 1069.15 373.814L1065.4 379.027C1054.24 394.549 1034.9 401.929 1016.24 397.79L948.601 382.791C912.734 374.837 876.448 394.337 863.286 428.637L857.578 443.514C846.146 473.307 812.829 488.309 782.944 477.12C754.263 466.382 722.171 479.745 709.587 507.665L700.806 527.146C691.016 548.866 669.403 562.832 645.578 562.832H621.68C601.422 562.832 585 579.254 585 599.512Z" fill="#D9F0F2"/>
<path d="M793 606H-134V597.57C-134 574.049 -117.216 553.878 -94.0872 549.602C-71.7902 545.48 -55.2735 526.537 -54.2263 503.887L-53.6323 491.037C-51.8289 452.028 -16.2753 423.407 22.2183 429.976L26.3504 430.682C48.8907 434.528 71.8673 426.907 87.6404 410.352L92.3995 405.357C123.222 373.006 174.324 371.44 207.069 401.843L236.235 428.922C246.157 438.134 261.017 439.569 272.519 432.424C285.941 424.087 303.529 427.575 312.753 440.404L315.503 444.228C323.691 455.617 337.878 461.031 351.573 457.995L405.903 445.948C430.169 440.567 455.035 452.088 466.619 474.079C476.685 493.19 496.984 504.662 518.548 503.428L570.351 500.464C593.522 499.138 616.518 505.175 636.05 517.712L665.555 536.649C682.333 547.417 702.791 550.843 722.162 546.126L724.784 545.488C731.52 543.847 738.525 543.639 745.346 544.875C772.938 549.876 793 573.901 793 601.942V606Z" fill="white"/>
<path d="M762 600H1663V577.219C1663 562.16 1653.23 548.845 1638.86 544.331C1626.12 540.328 1616.84 529.327 1615.04 516.094L1614.35 511.039C1611.77 492.107 1596.88 477.221 1577.94 474.65L1574.63 474.2C1557.58 471.885 1543.17 460.427 1537.07 444.341L1531.3 429.118C1523.22 407.789 1497.56 399.303 1478.35 411.606C1466.55 419.161 1451.44 419.169 1439.64 411.626L1420.62 399.468C1348.18 353.176 1251.71 377.676 1210.14 452.919L1198.85 473.358C1187.18 494.482 1162.36 504.607 1139.24 497.673C1125.11 493.432 1109.83 495.489 1097.31 503.319L1089.43 508.253C1075.97 516.677 1059.14 517.644 1044.8 510.816L1040.25 508.645C1005.28 491.993 963.396 505.454 944.679 539.358L943.848 540.863C933.583 559.456 910.912 567.263 891.376 558.932L870.264 549.93C835.852 535.256 795.942 543.573 770.256 570.77C764.954 576.384 762 583.814 762 591.535V600Z" fill="white"/>
</g>
<defs>
<clipPath id="clip0">
<rect width="1440" height="600" fill="white"/>
</clipPath>
</defs>
</svg>
