<svg xmlns:xlink="http://www.w3.org/1999/xlink" xmlns="http://www.w3.org/2000/svg" width="1660" height="207" viewBox="0 0 1660 207" fill="none">
<mask id="mask0" style="mask-type:alpha" maskUnits="userSpaceOnUse" x="0" y="0" width="1660" height="207">
<rect width="1660" height="207" fill="black"/>
</mask>
<g mask="url(#mask0)">
<rect y="133" width="1660" height="76" fill="#000B50"/>
<path d="M1660 133.277V24.5506L1636.36 30.9819C1611.46 37.7566 1585.13 37.2281 1560.52 29.4595C1534.15 21.1368 1505.86 21.1368 1479.5 29.4595L1465.71 33.8112C1449.86 38.8132 1433.35 41.3585 1416.73 41.3585H1406.88C1382.15 41.3585 1357.94 48.4587 1337.13 61.8153C1313.68 76.8645 1285.99 83.9259 1258.19 81.9454L1213.46 78.7576C1188.08 76.9491 1162.58 79.4955 1138.06 86.2865L1127.99 89.0749C1108.98 94.3392 1089.18 96.1574 1069.53 94.4435C1049.29 92.6773 1028.89 93.6255 1008.89 97.2629L995.725 99.6581C974.787 103.467 954.923 111.77 937.504 123.996L928.75 133.277H1660Z" fill="#266B73"/>
<path d="M-0.999939 158.785V28.4823C51.4578 14.3557 106.5 12.7462 159.693 23.7833L199.04 31.9473L239.683 45.0957C276.632 57.0493 315.227 63.1369 354.062 63.1369C374.388 63.1369 394.68 64.8046 414.733 68.1233L443.284 72.8483C473.869 77.9098 504.924 79.5317 535.87 77.6836C559.968 76.2445 584.074 80.3605 606.329 89.7141L641.5 104.496L684.133 120.059C711.444 130.028 740.704 133.49 769.587 130.167C790.708 127.738 812.088 128.929 832.807 133.69L900.62 149.273C905.008 150.282 908.117 154.187 908.117 158.689C908.117 158.742 908.074 158.785 908.021 158.785H-0.999939Z" fill="#377982"/>
<path d="M1447.69 75C1447.8 98.8722 1447.96 146.964 1447.69 148.355H1486.66L1447.69 75Z" fill="white"/>
<path d="M1445.18 97.8906C1445.1 114.329 1444.98 147.446 1445.18 148.404H1416.01L1445.18 97.8906Z" fill="white"/>
<path d="M1446.08 150.343V75" stroke="#C7C7C7" stroke-width="3.40118" stroke-linecap="round" stroke-linejoin="round"/>
<path d="M1495.57 150.065H1406.56C1410.47 156.527 1417.47 160.476 1425.02 160.476H1476.97C1484.56 160.476 1491.61 156.534 1495.57 150.065Z" fill="#FA7D29"/>
<path d="M-238.078 206.975V55.5768L-205.53 45.6871C-162.765 32.693 -116.8 35.0877 -75.6162 52.4553C-60.575 58.7984 -44.7836 63.1896 -28.6271 65.5219L14.8886 71.8037C30.2679 74.0238 44.9289 79.758 57.7336 88.5612C74.5921 100.151 94.5695 106.356 115.028 106.356H124.029C142.234 106.356 160.237 110.177 176.873 117.57L177.813 117.988C194.212 125.277 211.9 129.221 229.842 129.591L300.352 131.045C326.369 131.582 351.741 139.233 373.717 153.169C394.804 166.541 419.034 174.137 443.981 175.195L488.384 177.078C510.638 178.022 532.573 182.714 553.265 190.956L561.132 194.09C566.307 196.151 569.703 201.159 569.703 206.73C569.703 206.865 569.594 206.975 569.459 206.975H-238.078Z" fill="#0C535A"/>
<path fill-rule="evenodd" clip-rule="evenodd" d="M261.306 104.727C264.008 99.3435 271.693 99.3435 274.395 104.727C276.361 108.644 281.304 109.969 284.965 107.559C289.996 104.248 296.651 108.092 296.3 114.105C296.044 118.48 299.662 122.1 304.037 121.845C310.051 121.494 313.892 128.15 310.581 133.182C308.173 136.844 309.497 141.788 313.413 143.755C316.096 145.102 317.442 147.686 317.451 150.274H218.25C218.259 147.686 219.605 145.102 222.288 143.755C226.204 141.788 227.528 136.844 225.12 133.182C221.809 128.15 225.65 121.494 231.664 121.845C236.039 122.1 239.657 118.48 239.402 114.105C239.051 108.092 245.705 104.248 250.736 107.559C254.397 109.969 259.34 108.644 261.306 104.727Z" fill="#183539"/>
<path fill-rule="evenodd" clip-rule="evenodd" d="M23.1383 107.996C25.6246 100.146 36.7329 100.146 39.2191 107.996C41.3172 114.62 50.0769 116.007 54.1191 110.355C58.9088 103.658 69.4729 107.093 69.4123 115.326C69.3612 122.275 77.2634 126.302 82.8542 122.176C89.4791 117.287 98.4645 123.818 95.8631 131.63C93.6677 138.223 99.9384 144.496 106.531 142.3C114.343 139.697 120.87 148.686 115.982 155.313C111.857 160.905 115.883 168.809 122.831 168.758C131.066 168.697 134.497 179.263 127.8 184.055C122.149 188.098 123.535 196.859 130.16 198.958C134.076 200.199 136.039 203.585 136.048 206.977H-73.6904C-73.6812 203.585 -71.7186 200.199 -67.8026 198.958C-61.1778 196.859 -59.7914 188.098 -65.4429 184.055C-72.1398 179.263 -68.7084 168.697 -60.4739 168.758C-53.5251 168.809 -49.4997 160.905 -53.6249 155.313C-58.5129 148.686 -51.9855 139.697 -44.1735 142.3C-37.581 144.496 -31.3103 138.223 -33.5057 131.63C-36.107 123.818 -27.1217 117.287 -20.4968 122.176C-14.906 126.302 -7.00374 122.275 -7.05487 115.326C-7.11545 107.093 3.44864 103.658 8.23839 110.355C12.2806 116.007 21.0402 114.62 23.1383 107.996Z" fill="#183539"/>
</g>
</svg>